<svg id="visual" viewBox="0 0 900 600" width="900" height="600" xmlns="http://www.w3.org/2000/svg" xmlns:xlink="http://www.w3.org/1999/xlink" version="1.1"><rect x="0" y="0" width="900" height="600" fill="#001220"></rect><defs><linearGradient id="grad1_0" x1="33.3%" y1="100%" x2="100%" y2="0%"><stop offset="20%" stop-color="#001220" stop-opacity="1"></stop><stop offset="80%" stop-color="#001220" stop-opacity="1"></stop></linearGradient></defs><defs><linearGradient id="grad2_0" x1="0%" y1="100%" x2="66.7%" y2="0%"><stop offset="20%" stop-color="#001220" stop-opacity="1"></stop><stop offset="80%" stop-color="#001220" stop-opacity="1"></stop></linearGradient></defs><g transform="translate(900, 600)"><path d="M-486.7 0C-481.4 -64.2 -476 -128.4 -449.7 -186.3C-423.4 -244.1 -376.2 -295.5 -323.1 -323.1C-270.1 -350.8 -211.3 -354.6 -156.5 -377.9C-101.7 -401.2 -50.8 -444 0 -486.7L0 0Z" fill="#FBAE3C"></path></g><g transform="translate(0, 0)"><path d="M486.7 0C473.5 66.4 460.2 132.9 422.2 174.9C384.2 216.9 321.5 234.4 282.8 282.8C244.1 331.3 229.4 410.6 186.3 449.7C143.1 488.8 71.6 487.8 0 486.7L0 0Z" fill="#FBAE3C"></path></g></svg>