<svg id="Ebene_1" data-name="Ebene 1" xmlns="http://www.w3.org/2000/svg" viewBox="0 0 360 31"><title>HEINE_Quality_Made-In-Germany-white</title><path d="M0,.12H9.69v11H30.11V.12H39.8V30.93H30.11V19.27H9.69V30.93H0Z" style="fill:#fff"/><path d="M48.15.12H82.71V7.27H57.84v4.94H81.4v6.38H57.84v4.94H83.28v7.4H48.15Z" style="fill:#fff"/><path d="M91.2.12h9.69V30.93H91.2Z" style="fill:#fff"/><path d="M109.52.12h15l18.2,22.39h.08V.12h9.69V30.93h-15L119.29,8.55h-.08V30.93h-9.69Z" style="fill:#fff"/><path d="M160.85.12h34.56V7.27H170.54v4.94H194.1v6.38H170.54v4.94H196v7.4H160.85Z" style="fill:#fff"/><path d="M235.71,14.44c-.85,1.16-2.33,1.72-4.73,1.72h-9.33c-4.39,0-5.78-1.92-5.78-5.92V5.92c0-4,1.39-5.92,5.78-5.92H231c4.4,0,5.78,1.92,5.78,5.92v4.32a10.68,10.68,0,0,1-.26,2.56l1.63,1-1,1.51Zm-1.14-9.33c0-2.75-1.7-3.36-3.81-3.36h-8.89c-2.1,0-3.8.61-3.8,3.36v5.94c0,2.75,1.7,3.36,3.8,3.36h8.89c1.68,0,2.51-.23,3.14-1.11l-6.5-4,1-1.51,6.18,3.83Z" style="fill:#fff"/><path d="M242.69.17h2.2V12c0,1.53.53,2.42,3.51,2.42H256c3,0,3.52-.89,3.52-2.42V.17h2.19V12c0,3.21-1.66,4.15-5.78,4.15h-7.48c-4.12,0-5.78-.94-5.78-4.15Z" style="fill:#fff"/><path d="M275,.17h2.74L287.4,16h-2.48l-2-3.35h-13l-2,3.35H265.4Zm1.37,1.75-5.44,9h10.88Z" style="fill:#fff"/><path d="M291.66.17h2.19V14.24h12.59V16H291.66Z" style="fill:#fff"/><path d="M311,.17h2.2V16H311Z" style="fill:#fff"/><path d="M326.07,1.92h-8.19V.17h18.59V1.92h-8.2V16h-2.2Z" style="fill:#fff"/><path d="M348.51,9.31,339.21.17h3l7.44,7.34L357,.17h3l-9.3,9.14V16h-2.19Z" style="fill:#fff"/><path d="M215.89,24.61h1.37l3.79,5.3,3.78-5.3h1.38v6.32h-.88V25.37h0l-3.95,5.56h-.63l-3.95-5.56h0v5.56h-.87Z" style="fill:#fff"/><path d="M232.18,24.61h1.1l3.85,6.32h-1l-.81-1.33h-5.19l-.81,1.33h-1Zm.56.7-2.18,3.59h4.35Z" style="fill:#fff"/><path d="M239.23,24.61h5.24c2.18,0,2.77.66,2.77,3.16,0,2.32-.59,3.16-2.8,3.16h-5.21Zm7.13,2.85c0-1.82-.58-2.15-1.66-2.15h-4.59v4.92h4.45c1.06,0,1.8-.22,1.8-2.12Z" style="fill:#fff"/><path d="M250,24.61h6.37v.7h-5.5v2h5.28V28h-5.28v2.21h5.53v.7H250Z" style="fill:#fff"/><path d="M264.11,24.61H265v6.32h-.88Z" style="fill:#fff"/><path d="M267.91,24.61h1.31l5.94,5.55V24.61H276v6.32h-1.3l-5.95-5.56v5.56h-.88Z" style="fill:#fff"/><path d="M292,28.67c0,1.72-.57,2.33-2.19,2.33h-3.62c-1.76,0-2.32-.77-2.32-2.37V26.91c0-1.6.56-2.37,2.32-2.37h3.31c1.17,0,2.41.27,2.41,1.73v.23h-.82c0-1.18-.37-1.26-2.54-1.26h-2.28c-.84,0-1.52.24-1.52,1.34V29c0,1.1.68,1.34,1.52,1.34h3.44c.88,0,1.41-.29,1.41-1.17v-.64h-3.32v-.7H292Z" style="fill:#fff"/><path d="M294.84,24.61h6.37v.7h-5.49v2H301V28h-5.28v2.21h5.53v.7h-6.41Z" style="fill:#fff"/><path d="M303.92,24.61h5.19c1.87,0,2.17.6,2.17,1.79v.51c0,.89-.52,1.14-1.19,1.2v0c.89.15,1.11.61,1.11,1.19v1.61h-.82V29.54c0-1-.49-1.11-1.29-1.11h-4.28v2.5h-.89Zm5.1,3.12c1,0,1.38-.25,1.38-.91v-.58c0-.71-.31-.93-1.6-.93h-4v2.42Z" style="fill:#fff"/><path d="M314.33,24.61h1.37l3.79,5.3,3.78-5.3h1.38v6.32h-.88V25.37h0l-3.95,5.56h-.63l-3.95-5.56h0v5.56h-.87Z" style="fill:#fff"/><path d="M330.65,24.61h1.09l3.86,6.32h-1l-.8-1.33h-5.2l-.8,1.33h-1Zm.55.7L329,28.9h4.36Z" style="fill:#fff"/><path d="M337.7,24.61H339L345,30.16V24.61h.88v6.32h-1.31l-5.95-5.56v5.56h-.87Z" style="fill:#fff"/><path d="M351.61,28.26l-3.72-3.65h1.18l3,2.93,3-2.93h1.18l-3.71,3.65v2.67h-.88Z" style="fill:#fff"/></svg>