<svg width="132" height="112" viewBox="0 0 132 112" fill="none" xmlns="http://www.w3.org/2000/svg">
<path d="M66 0L0 112H132L66 0Z" fill="#F1F1F1"/>
<path d="M17.0901 112H114.91L66 29.0071L17.0901 112Z" fill="#EE5F22"/>
<path d="M64.8741 51.6174C63.4299 52.007 56.5736 53.0276 54.8344 55.8481C53.0873 58.6685 55.044 61.5669 57.0628 62.72L57.4743 60.8657C57.4743 60.8657 53.3979 57.1882 59.1671 54.9755L55.1139 73.7681L60.852 71.5943L59.5631 77.4144L61.5819 76.7599L63.5231 68.5089L57.6685 70.597L59.1593 63.6861L64.5325 65.743C64.5325 65.743 66.3572 66.4598 67.8791 67.1377C69.7115 67.9636 71.8313 68.8206 72.1186 70.6282C72.4835 72.9422 70.4958 73.9707 68.64 74.8199C66.7842 75.6692 59.7028 77.9131 56.1388 79.2687C52.3264 80.7179 48.8943 81.9645 43.6609 84.7227C38.7304 87.3249 36.4553 90.8778 36.2534 93.6904C36.0515 96.6433 37.2473 99.5028 40.9355 100.843C44.7946 102.237 49.8106 101.965 53.1572 101.965L53.5687 99.9702L48.7158 99.8845C48.7158 99.8845 42.8689 99.5339 41.1219 98.4899C39.3826 97.4459 38.7769 96.6511 38.4664 94.8124C38.1558 92.9814 39.6466 90.3713 41.6266 88.7196C43.2339 87.3795 47.0153 85.1901 50.4784 83.702C54.3374 82.0502 58.7322 80.5855 58.7322 80.5855L57.2958 86.5147H59.1282L60.8132 80.079L62.0866 79.5726C62.0866 79.5726 65.5263 78.2792 68.5934 77.2352C68.5934 77.2352 70.6821 76.6119 72.6543 75.1238C74.6266 73.6356 75.8845 69.5919 72.3127 67.0987C68.64 64.5354 60.5259 62.1512 59.7339 61.7461L61.2635 54.469L63.6162 53.8457C63.6162 53.8457 66.5591 52.9809 67.2812 53.012C68.0033 53.0432 68.772 53.425 69.0127 53.4639C69.0127 53.4639 70.0454 53.7055 70.7054 53.7055C71.3654 53.7055 72.7242 53.3938 73.1513 53.09C73.8346 52.6069 73.9743 52.1628 73.9743 51.9758C73.9743 51.9135 74.7663 52.1005 75.372 51.9836C75.3021 51.9057 74.0831 51.7888 75.3176 51.5161C74.9216 51.446 73.7569 51.6096 73.5318 51.6797C73.2755 51.7654 73.1513 51.8122 72.9882 51.8823C72.8795 51.9213 72.0953 52.2952 71.4586 52.3342C70.8918 52.3732 70.9539 51.3525 71.5906 51.5005C71.5906 51.5005 73.3376 51.4616 73.7958 50.9863C74.2539 50.511 72.8718 49.4125 70.9616 49.4592C69.0593 49.506 68.2362 50.2305 67.5063 50.6123C66.7842 50.9941 66.0776 51.1733 64.8741 51.5784" fill="white"/>
<path d="M61.7525 51.7419L59.6638 52.3262L61.0382 45.4777L63.0415 45.2595L61.7525 51.7419Z" fill="white"/>
<path d="M56.2632 98.7312H54.3997L52.9399 106.086H51.5889L53.0875 110.878L56.0458 106.125H54.6559L55.5333 101.988H88.5411C88.5411 101.988 90.4202 101.988 90.9792 101.98C91.5383 101.972 93.891 102.011 94.5743 102.736C95.0868 103.274 95.4051 103.967 95.3275 104.621C95.2576 105.245 95.1411 105.572 95.1411 105.572C95.1411 105.572 96.9037 104.068 96.694 102.354C96.4922 100.726 95.0246 100.032 92.4157 99.9856C90.6686 99.9466 85.3498 99.97 85.3498 99.97H55.9992L56.2632 98.7312Z" fill="white"/>
<path d="M50.7735 87.5898L48.4053 97.8354L50.4785 97.812L51.4723 93.5502H55.4867L54.5161 97.7575H56.5116L58.9109 87.5898H56.9076L55.9293 91.4777H51.946L52.8389 87.5898H50.7735Z" fill="white"/>
<path d="M61.1549 87.6833L58.8721 97.812H66.6678L67.157 96.0122H61.5431L62.1255 93.5501H66.9396L67.4288 91.4699H62.5215L63.0107 89.561H68.6245L69.005 87.6599L61.1549 87.6833Z" fill="white"/>
<path d="M70.8063 87.6054L68.5701 97.7575H70.5889L72.8795 87.5898L70.8063 87.6054Z" fill="white"/>
<path d="M74.945 87.6444L72.7166 97.703H74.8441L76.2029 90.9791L79.1457 97.7575H81.1102L83.3387 87.5898H81.3276L79.7436 94.5864L76.9095 87.6444H74.945Z" fill="white"/>
<path d="M85.4119 87.6443L83.23 97.7574H90.9714L91.3519 96.0122H85.738L86.3048 93.5267H91.1888L91.6857 91.5633H86.6697L87.1046 89.5142H92.8272L93.1999 87.6443H85.4119Z" fill="white"/>
</svg>
