<svg id="visual" viewBox="0 0 900 600" width="900" height="600" xmlns="http://www.w3.org/2000/svg" xmlns:xlink="http://www.w3.org/1999/xlink" version="1.1"><rect x="0" y="0" width="900" height="600" fill="#444444"></rect><defs><linearGradient id="grad1_0" x1="33.3%" y1="100%" x2="100%" y2="0%"><stop offset="20%" stop-color="#444444" stop-opacity="1"></stop><stop offset="80%" stop-color="#444444" stop-opacity="1"></stop></linearGradient></defs><defs><linearGradient id="grad2_0" x1="0%" y1="100%" x2="66.7%" y2="0%"><stop offset="20%" stop-color="#444444" stop-opacity="1"></stop><stop offset="80%" stop-color="#444444" stop-opacity="1"></stop></linearGradient></defs><g transform="translate(900, 600)"><path d="M-486.7 0C-479.7 -62.4 -472.6 -124.8 -449.7 -186.3C-426.8 -247.7 -388 -308.2 -334.5 -334.5C-280.9 -360.7 -212.4 -352.7 -154.2 -372.3C-96 -392 -48 -439.4 0 -486.7L0 0Z" fill="#646464"></path></g><g transform="translate(0, 0)"><path d="M486.7 0C469 59.2 451.3 118.3 430.5 178.3C409.8 238.3 386 299.1 344.2 344.2C302.4 389.3 242.5 418.6 182.2 439.8C121.8 460.9 60.9 473.8 0 486.7L0 0Z" fill="#646464"></path></g></svg>